<?xml version="1.0" encoding="utf-8"?>
<!-- Generator: Adobe Illustrator 21.0.2, SVG Export Plug-In . SVG Version: 6.00 Build 0)  -->
<svg version="1.1" id="Ebene_1" xmlns="http://www.w3.org/2000/svg" xmlns:xlink="http://www.w3.org/1999/xlink" x="0px" y="0px"
	 viewBox="0 0 337.2 436.9" style="enable-background:new 0 0 337.2 436.9;" xml:space="preserve">
<style type="text/css">
	.st0{fill:none;stroke:#C84728;stroke-width:0.8;stroke-miterlimit:10;}
	.st1{fill:none;stroke:#C84728;stroke-width:0.8;stroke-miterlimit:10;stroke-dasharray:8.8118,6.8536,8.8118,6.8536;}
	
		.st2{fill:none;stroke:#C84728;stroke-width:0.8;stroke-miterlimit:10;stroke-dasharray:8.8118,6.8536,8.8118,6.8536,8.8118,6.8536;}
	.st3{fill:#C84728;}
</style>
<g>
	<g>
		<path class="st0" d="M70.5,55.6c0,0,0,1.6,0.1,4.5"/>
		<path class="st1" d="M71,67c0.4,6.9,1.1,16.6,2.4,27.8"/>
		<path class="st2" d="M73.7,98.2c4.5,37.5,15.4,89.9,41.4,113.7c42.9,39.4,85.7,21.9,87.5-11.4c1.7-33.2-25.2-47.2-43.7-42
			c-24.3,6.9-54.2,41.1-27.1,98s66.1,71,94.4,74.8c16.3,2.2,40.5-4.1,48.8-29c13-38.9-8.3-67.7-32.2-56.3
			c-30.4,14.6-59.5,110.2-59.5,110.2l-7.9,20.4"/>
		<line class="st0" x1="174.2" y1="379.8" x2="172.6" y2="384"/>
		<g>
			<polygon class="st3" points="166,378.9 168.5,394.7 180.9,384.7 			"/>
		</g>
	</g>
</g>
<g>
</g>
<g>
</g>
<g>
</g>
<g>
</g>
<g>
</g>
<g>
</g>
<g>
</g>
</svg>
