<?xml version="1.0" standalone="no"?>
<!DOCTYPE svg PUBLIC "-//W3C//DTD SVG 20010904//EN"
 "http://www.w3.org/TR/2001/REC-SVG-20010904/DTD/svg10.dtd">
<svg version="1.0" xmlns="http://www.w3.org/2000/svg"
 width="500.000000pt" height="500.000000pt" viewBox="0 0 500.000000 500.000000"
 preserveAspectRatio="xMidYMid meet">
<metadata>
Created by potrace 1.11, written by Peter Selinger 2001-2013
</metadata>
<g transform="translate(0.000000,500.000000) scale(0.100000,-0.100000)"
fill="#000000" stroke="none">
<path d="M880 2413 c0 -1235 3 -1553 13 -1554 18 -1 489 -1 508 0 15 1 16 102
15 1146 -1 630 1 1145 4 1145 4 0 203 -518 215 -560 4 -15 218 -583 274 -730
16 -41 84 -222 152 -403 l122 -327 36 -1 c44 -1 481 -1 498 0 11 1 22 25 83
191 15 41 64 172 108 290 45 118 193 514 330 879 137 365 251 659 254 655 2
-5 4 -521 4 -1146 -1 -1132 -1 -1138 19 -1139 11 0 131 -1 268 -2 l247 -2 1
50 c1 61 1 3024 0 3045 -1 13 -48 15 -371 15 -232 0 -373 -4 -379 -10 -5 -6
-71 -174 -146 -375 -75 -201 -144 -387 -155 -415 -10 -27 -39 -106 -65 -175
-25 -69 -49 -132 -52 -140 -4 -8 -7 -17 -8 -20 -1 -3 -4 -12 -8 -20 -3 -8 -69
-186 -147 -395 -77 -209 -146 -393 -153 -410 -6 -16 -12 -32 -13 -35 0 -3 -5
-16 -11 -30 -5 -14 -23 -60 -38 -103 l-28 -78 -12 33 c-7 18 -116 312 -244
653 -128 341 -266 712 -308 825 -42 113 -118 315 -168 450 l-92 245 -377 0
-376 0 0 -1552z"/>
</g>
</svg>
